HIERARCHY
ROOT pelvis
{
	OFFSET 0.003123 -0.351407 0.012037
	CHANNELS 6 Xposition Yposition Zposition Zrotation Yrotation Xrotation 
	JOINT left_hip
	{
		OFFSET 0.058189 -0.092763 -0.026001
		CHANNELS 3 Zrotation Yrotation Xrotation
		JOINT left_knee
		{
			OFFSET 0.054695 -0.378753 -0.009396
			CHANNELS 3 Zrotation Yrotation Xrotation
			JOINT left_ankle
			{
				OFFSET -0.043453 -0.403059 -0.031876
				CHANNELS 3 Zrotation Yrotation Xrotation
				JOINT left_foot
				{
					OFFSET 0.047257 -0.057997 0.118216
					CHANNELS 3 Zrotation Yrotation Xrotation
					End Site
					{
						OFFSET 0.000000 0.000000 0.000000
					}
				}
			}
		}
	}
	JOINT right_hip
	{
		OFFSET -0.063267 -0.103908 -0.021250
		CHANNELS 3 Zrotation Yrotation Xrotation
		JOINT right_knee
		{
			OFFSET -0.044210 -0.362380 -0.016824
			CHANNELS 3 Zrotation Yrotation Xrotation
			JOINT right_ankle
			{
				OFFSET 0.015417 -0.410728 -0.020192
				CHANNELS 3 Zrotation Yrotation Xrotation
				JOINT right_foot
				{
					OFFSET -0.038812 -0.058328 0.119049
					CHANNELS 3 Zrotation Yrotation Xrotation
					End Site
					{
						OFFSET 0.000000 0.000000 0.000000
					}
				}
			}
		}
	}
	JOINT spine_1
	{
		OFFSET -0.002763 0.109891 -0.027618
		CHANNELS 3 Zrotation Yrotation Xrotation
		JOINT spine_2
		{
			OFFSET 0.009448 0.131853 -0.005940
			CHANNELS 3 Zrotation Yrotation Xrotation
			JOINT spine_3
			{
				OFFSET -0.011330 0.052235 0.028447
				CHANNELS 3 Zrotation Yrotation Xrotation
				JOINT neck
				{
					OFFSET -0.012164 0.165167 -0.031615
					CHANNELS 3 Zrotation Yrotation Xrotation
					JOINT head
					{
						OFFSET 0.024783 0.160452 0.020737
						CHANNELS 3 Zrotation Yrotation Xrotation
						End Site
						{
							OFFSET 0.000000 0.000000 0.000000
						}
					}
				}
				JOINT left_collar
				{
					OFFSET 0.046364 0.084944 -0.007220
					CHANNELS 3 Zrotation Yrotation Xrotation
					JOINT left_shoulder
					{
						OFFSET 0.119239 0.057728 -0.015461
						CHANNELS 3 Zrotation Yrotation Xrotation
						JOINT left_elbow
						{
							OFFSET 0.254123 -0.072151 -0.042459
							CHANNELS 3 Zrotation Yrotation Xrotation
							JOINT left_wrist
							{
								OFFSET 0.251987 0.023221 -0.002472
								CHANNELS 3 Zrotation Yrotation Xrotation
								JOINT left_index_1
								{
									OFFSET 0.101902 -0.008688 0.019351
									CHANNELS 3 Zrotation Yrotation Xrotation
									JOINT left_index_2
									{
										OFFSET 0.030149 -0.011154 0.001151
										CHANNELS 3 Zrotation Yrotation Xrotation
										JOINT left_index_3
										{
											OFFSET 0.006504 -0.021577 -0.002433
											CHANNELS 3 Zrotation Yrotation Xrotation
											End Site
											{
												OFFSET 0.000000 0.000000 0.000000
											}
										}
									}
								}
								JOINT left_middle_1
								{
									OFFSET 0.109398 -0.006328 -0.003981
									CHANNELS 3 Zrotation Yrotation Xrotation
									JOINT left_middle_2
									{
										OFFSET 0.026472 -0.015218 -0.004641
										CHANNELS 3 Zrotation Yrotation Xrotation
										JOINT left_middle_3
										{
											OFFSET 0.005022 -0.023347 -0.001911
											CHANNELS 3 Zrotation Yrotation Xrotation
											End Site
											{
												OFFSET 0.000000 0.000000 0.000000
											}
										}
									}
								}
								JOINT left_pinky_1
								{
									OFFSET 0.084047 -0.014539 -0.043750
									CHANNELS 3 Zrotation Yrotation Xrotation
									JOINT left_pinky_2
									{
										OFFSET 0.012124 -0.014448 -0.005375
										CHANNELS 3 Zrotation Yrotation Xrotation
										JOINT left_pinky_3
										{
											OFFSET 0.003798 -0.018853 0.000167
											CHANNELS 3 Zrotation Yrotation Xrotation
											End Site
											{
												OFFSET 0.000000 0.000000 0.000000
											}
										}
									}
								}
								JOINT left_ring_1
								{
									OFFSET 0.097444 -0.009268 -0.027345
									CHANNELS 3 Zrotation Yrotation Xrotation
									JOINT left_ring_2
									{
										OFFSET 0.023561 -0.016057 -0.001895
										CHANNELS 3 Zrotation Yrotation Xrotation
										JOINT left_ring_3
										{
											OFFSET 0.004257 -0.023548 0.000814
											CHANNELS 3 Zrotation Yrotation Xrotation
											End Site
											{
												OFFSET 0.000000 0.000000 0.000000
											}
										}
									}
								}
								JOINT left_thumb_1
								{
									OFFSET 0.040636 -0.017977 0.025611
									CHANNELS 3 Zrotation Yrotation Xrotation
									JOINT left_thumb_2
									{
										OFFSET 0.021637 -0.017639 0.011623
										CHANNELS 3 Zrotation Yrotation Xrotation
										JOINT left_thumb_3
										{
											OFFSET 0.024002 -0.008356 0.006548
											CHANNELS 3 Zrotation Yrotation Xrotation
											End Site
											{
												OFFSET 0.000000 0.000000 0.000000
											}
										}
									}
								}
							}
						}
					}
				}
				JOINT right_collar
				{
					OFFSET -0.047695 0.084339 -0.013400
					CHANNELS 3 Zrotation Yrotation Xrotation
					JOINT right_shoulder
					{
						OFFSET -0.102578 0.053524 -0.012669
						CHANNELS 3 Zrotation Yrotation Xrotation
						JOINT right_elbow
						{
							OFFSET -0.271150 -0.036492 -0.026467
							CHANNELS 3 Zrotation Yrotation Xrotation
							JOINT right_wrist
							{
								OFFSET -0.249267 -0.004533 -0.015325
								CHANNELS 3 Zrotation Yrotation Xrotation
								JOINT right_index_1
								{
									OFFSET -0.099881 -0.011783 0.019600
									CHANNELS 3 Zrotation Yrotation Xrotation
									JOINT right_index_2
									{
										OFFSET -0.030148 -0.011154 0.001151
										CHANNELS 3 Zrotation Yrotation Xrotation
										JOINT right_index_3
										{
											OFFSET -0.006505 -0.021577 -0.002432
											CHANNELS 3 Zrotation Yrotation Xrotation
											End Site
											{
												OFFSET 0.000000 0.000000 0.000000
											}
										}
									}
								}
								JOINT right_middle_1
								{
									OFFSET -0.107376 -0.009422 -0.003734
									CHANNELS 3 Zrotation Yrotation Xrotation
									JOINT right_middle_2
									{
										OFFSET -0.026472 -0.015218 -0.004641
										CHANNELS 3 Zrotation Yrotation Xrotation
										JOINT right_middle_3
										{
											OFFSET -0.005022 -0.023347 -0.001911
											CHANNELS 3 Zrotation Yrotation Xrotation
											End Site
											{
												OFFSET 0.000000 0.000000 0.000000
											}
										}
									}
								}
								JOINT right_pinky_1
								{
									OFFSET -0.082027 -0.017634 -0.043503
									CHANNELS 3 Zrotation Yrotation Xrotation
									JOINT right_pinky_2
									{
										OFFSET -0.012123 -0.014448 -0.005374
										CHANNELS 3 Zrotation Yrotation Xrotation
										JOINT right_pinky_3
										{
											OFFSET -0.003798 -0.018852 0.000167
											CHANNELS 3 Zrotation Yrotation Xrotation
											End Site
											{
												OFFSET 0.000000 0.000000 0.000000
											}
										}
									}
								}
								JOINT right_ring_1
								{
									OFFSET -0.095423 -0.012362 -0.027099
									CHANNELS 3 Zrotation Yrotation Xrotation
									JOINT right_ring_2
									{
										OFFSET -0.023561 -0.016057 -0.001895
										CHANNELS 3 Zrotation Yrotation Xrotation
										JOINT right_ring_3
										{
											OFFSET -0.004257 -0.023548 0.000816
											CHANNELS 3 Zrotation Yrotation Xrotation
											End Site
											{
												OFFSET 0.000000 0.000000 0.000000
											}
										}
									}
								}
								JOINT right_thumb_1
								{
									OFFSET -0.038613 -0.021074 0.025861
									CHANNELS 3 Zrotation Yrotation Xrotation
									JOINT right_thumb_2
									{
										OFFSET -0.021636 -0.017639 0.011623
										CHANNELS 3 Zrotation Yrotation Xrotation
										JOINT right_thumb_3
										{
											OFFSET -0.024004 -0.008353 0.006547
											CHANNELS 3 Zrotation Yrotation Xrotation
											End Site
											{
												OFFSET 0.000000 0.000000 0.000000
											}
										}
									}
								}
							}
						}
					}
				}
			}
		}
	}
}
MOTION
Frames: 4
Frame Time: 0.050000
0.110739 0.975592 0.318350 -6.866948 5.308106 -1.790915 1.819818 0.208035 2.240199 8.377451 0.931228 -8.721795 -10.938289 -7.784255 13.427920 0.000000 0.000000 0.000000 1.998546 0.436886 -3.549476 -2.032008 0.757731 12.662247 16.590345 8.580373 28.110683 0.000000 0.000000 0.000000 1.968913 -0.083310 2.116173 -10.366894 -0.695091 -21.407577 5.557140 -2.304991 29.635763 -0.653484 -0.141075 1.825969 0.000000 0.000000 0.000000 11.170249 -16.206108 7.145001 -29.213407 -77.708343 -9.249291 -37.521640 -44.674137 20.920548 -6.007834 -12.236492 -29.575756 -8.959166 0.823664 0.696240 -4.570270 -5.756282 -17.040544 0.000000 0.000000 0.000000 -20.224663 -7.466064 -4.040552 -2.501931 -5.342851 -15.427068 0.000000 0.000000 0.000000 -9.681078 -18.516197 -24.543432 -29.539114 -5.900921 -9.667450 0.000000 0.000000 0.000000 -21.272109 -10.244701 -3.697542 -12.682993 -9.517796 -16.174351 0.000000 0.000000 0.000000 19.325285 9.746562 -4.767398 -14.024983 0.004318 3.385762 0.000000 0.000000 0.000000 -9.789357 5.830162 3.091251 31.657927 28.336111 0.488536 28.832816 53.025994 12.578259 6.812113 18.709843 -24.005342 10.396524 2.742540 0.046225 -7.630371 2.798379 -13.861104 0.000000 0.000000 0.000000 18.795887 9.737293 -5.488208 -5.500652 1.742587 -7.457461 0.000000 0.000000 0.000000 -2.024951 14.333803 -21.446335 21.866020 0.300237 0.021976 0.000000 0.000000 0.000000 15.669552 9.843347 -5.185034 2.426350 1.968939 -4.904209 0.000000 0.000000 0.000000 -17.640779 -6.128370 -6.306168 19.110419 1.495905 4.315757 0.000000 0.000000 0.000000 
0.111210 0.975269 0.318020 -6.964256 5.127230 -1.808290 1.858524 0.215536 2.312487 8.374470 0.946743 -8.816948 -10.721919 -7.529305 13.340317 0.000000 0.000000 0.000000 2.085549 0.437555 -3.560008 -2.102428 0.771859 12.654632 16.706519 8.735598 28.061098 0.000000 0.000000 0.000000 1.689088 -0.091871 2.112699 -10.184002 -0.785674 -21.480454 5.618258 -2.295648 29.559964 -0.500972 -0.142714 1.627638 0.000000 0.000000 0.000000 10.858027 -15.996087 7.081070 -33.184904 -77.286476 -6.236588 -39.093930 -44.022923 21.346029 -6.316480 -12.818289 -30.768051 -9.451750 -1.093083 0.411915 -3.187315 -4.801612 -14.970550 0.000000 0.000000 0.000000 -20.574549 -9.143397 -4.507398 -2.664730 -4.816330 -13.539865 0.000000 0.000000 0.000000 -10.528990 -20.433707 -26.382884 -26.774736 -3.462474 -6.488799 0.000000 0.000000 0.000000 -22.436183 -11.967673 -4.119214 -9.242643 -9.714490 -18.652407 0.000000 0.000000 0.000000 21.034781 8.402177 -6.538722 -16.166861 3.747875 5.432221 0.000000 0.000000 0.000000 -9.761341 5.732479 3.061364 32.395952 27.741469 0.478908 30.805595 53.270280 13.604174 7.194587 18.613058 -23.813876 9.570049 3.498676 -0.195520 -6.826079 2.943672 -13.970024 0.000000 0.000000 0.000000 17.459700 10.128895 -5.735235 -2.817239 2.151934 -8.254832 0.000000 0.000000 0.000000 -2.380867 14.549295 -21.800302 21.290090 0.130482 0.360697 0.000000 0.000000 0.000000 15.572212 10.205523 -5.418705 0.433315 1.665433 -4.935192 0.000000 0.000000 0.000000 -18.808952 -6.664436 -6.497322 21.286207 2.271047 4.794187 0.000000 0.000000 0.000000 
0.111681 0.975269 0.318350 -7.091511 5.222114 -1.774507 1.966942 0.210242 2.325895 8.374230 0.970214 -8.953246 -10.790355 -7.549661 13.426738 0.000000 0.000000 0.000000 2.167888 0.429868 -3.505725 -2.037473 0.754058 12.522752 16.675857 8.673815 28.116930 0.000000 0.000000 0.000000 2.017729 -0.065071 1.911605 -10.789546 -0.591197 -21.502186 5.922213 -2.580270 29.537663 -0.555599 -0.139074 1.669734 0.000000 0.000000 0.000000 10.489203 -15.802492 7.025514 -36.981444 -76.906878 -3.383277 -40.773460 -44.244904 22.296699 -6.316644 -12.270752 -30.658288 -9.426895 -0.543803 0.501225 -4.985775 -4.885839 -13.856268 0.000000 0.000000 0.000000 -19.586660 -6.770503 -3.741789 -6.396195 -6.235752 -15.326071 0.000000 0.000000 0.000000 -9.548822 -18.492932 -24.525355 -29.577662 -5.443092 -8.824946 0.000000 0.000000 0.000000 -24.320111 -11.610133 -3.501234 -13.873898 -11.979672 -20.171686 0.000000 0.000000 0.000000 20.257454 9.387762 -5.500096 -17.251415 3.549440 5.623630 0.000000 0.000000 0.000000 -10.000486 5.360381 2.923891 33.116955 26.972707 0.426908 32.518070 53.946757 14.676588 6.816854 18.527532 -22.970598 10.270770 2.681614 0.027933 -7.061882 2.920862 -13.985699 0.000000 0.000000 0.000000 18.388962 9.991458 -5.681360 -5.255416 1.558480 -6.621471 0.000000 0.000000 0.000000 -0.880742 14.368262 -21.243817 18.738579 -0.312489 1.011826 0.000000 0.000000 0.000000 16.666935 9.690427 -5.000040 -0.026382 1.461318 -4.605390 0.000000 0.000000 0.000000 -17.127447 -6.946676 -5.349853 19.784425 0.282234 4.826946 0.000000 0.000000 0.000000 
0.111210 0.975269 0.317690 -7.144195 5.286923 -1.820483 2.029248 0.199067 2.263567 8.414103 0.967268 -8.935083 -10.858173 -7.522309 13.564346 0.000000 0.000000 0.000000 2.251496 0.437119 -3.556883 -1.991969 0.747178 12.557370 16.609238 8.478031 28.289195 0.000000 0.000000 0.000000 1.612791 -0.075047 1.890138 -10.028983 -0.843959 -21.530335 5.465812 -2.150930 29.655154 -0.797294 -0.093876 1.703967 0.000000 0.000000 0.000000 10.401754 -15.459825 6.930519 -37.995567 -76.675024 -2.897259 -42.132774 -44.370527 23.032815 -6.950658 -13.162754 -29.388003 -9.721054 -1.315656 0.382379 -8.055421 -5.667448 -14.185984 0.000000 0.000000 0.000000 -24.207827 -9.415130 -4.393003 -16.386296 -10.471734 -20.412312 0.000000 0.000000 0.000000 -9.614145 -18.299143 -24.360745 -32.200618 -5.432618 -8.903038 0.000000 0.000000 0.000000 -34.017760 -18.023283 -3.777762 -19.595591 -14.021606 -21.864769 0.000000 0.000000 0.000000 20.061876 9.184706 -5.546235 -16.155734 4.195860 5.533218 0.000000 0.000000 0.000000 -9.918265 5.142415 2.796886 33.628986 26.500815 0.488696 31.888787 54.658914 14.715782 6.848348 18.335155 -22.416836 11.546527 3.084135 0.085592 -6.050754 3.003909 -13.909964 0.000000 0.000000 0.000000 18.714721 9.527186 -5.520246 -2.146334 2.032075 -7.719253 0.000000 0.000000 0.000000 -2.076739 14.410981 -21.475278 22.716036 0.475939 -0.305639 0.000000 0.000000 0.000000 15.653552 9.416935 -5.047560 3.081575 1.963357 -4.748380 0.000000 0.000000 0.000000 -18.214913 -7.951866 -5.082404 18.577769 -1.416150 4.973792 0.000000 0.000000 0.000000 
